<svg width="233" height="42" viewBox="0 0 233 42" fill="none" xmlns="http://www.w3.org/2000/svg">
<g clip-path="url(#clip0)">
<path d="M129.701 21.0175L134.798 9.60105C131.761 9.56613 129.282 7.19207 129.072 4.22449L123.661 16.2345C123.766 16.2345 123.87 16.2345 123.975 16.2345C124.394 16.2345 124.813 16.3043 125.197 16.409C127.571 16.7931 129.387 18.6784 129.701 21.0175Z" fill="white"/>
<path d="M137.661 35.576C138.08 35.0873 138.01 34.4588 137.591 34.0748C137.172 33.6908 136.544 33.7257 136.09 34.1795C135.81 34.4588 135.531 34.7731 135.252 35.0873C135.042 35.3317 134.903 35.3317 134.623 35.1571C132.982 33.9352 131.342 32.7481 129.666 31.5611C127.815 30.1995 125.965 28.8728 124.115 27.5461C123.94 27.4065 123.731 27.2668 123.556 27.1621C123.277 26.9526 123.137 26.778 123.277 26.4289C123.416 26.1496 123.381 25.7307 123.556 25.5212C123.8 25.5561 124.045 25.591 124.324 25.591C126.419 25.591 128.095 23.9501 128.13 21.9601C128.165 19.8304 126.489 18.015 124.324 18.015C122.229 18.015 120.554 19.7257 120.554 21.8554C120.554 22.8329 120.903 23.7057 121.496 24.3691C121.531 24.5436 121.531 24.6833 121.496 24.8928C121.391 25.2768 121.322 25.6958 121.147 26.0798C121.147 26.1147 121.112 26.1496 121.112 26.1845C121.042 26.3242 121.007 26.4638 120.938 26.6035C120.833 26.8479 120.728 27.0573 120.588 27.2668C119.401 28.9426 118.459 30.7232 118.11 32.783C117.691 35.2618 118.424 37.2868 120.344 38.9277C121.566 39.9751 122.893 40.8828 123.696 41.1621C127.85 42.6284 130.853 41.8254 133.611 39.7656C135.147 38.5087 136.369 37.0424 137.661 35.576ZM125.965 21.7855C125.965 22.6933 125.232 23.3915 124.324 23.3915C123.451 23.3915 122.718 22.6583 122.718 21.7855C122.718 20.9127 123.521 20.1446 124.359 20.1446C125.267 20.1446 125.965 20.9127 125.965 21.7855Z" fill="white"/>
<path d="M0 41.581H27.8254V35.0524H7.22693V26.1845H25.5212V19.6209H7.22693V10.1596H27.8254V3.77057H0V41.581Z" fill="white"/>
<path d="M62.8778 3.52618L53.0674 17.1072L43.2569 3.52618H34.2145L48.5985 22.5885L34.5287 41.2668H43.5711L53.0674 28.1047L62.5636 41.2668H71.606L57.5711 22.5885L71.8853 3.52618H62.8778Z" fill="white"/>
<path d="M86.6184 40.4289C88.9924 41.4763 91.5411 41.9651 94.1944 41.9651C96.0099 41.9651 97.7904 41.7207 99.5012 41.2319C101.212 40.7431 102.783 40.0798 104.249 39.207C105.716 38.3342 107.042 37.2868 108.264 36.0648C109.486 34.8429 110.499 33.4813 111.302 31.9451L104.529 29.222C103.97 30.0599 103.342 30.8279 102.608 31.5611C101.875 32.2943 101.037 32.9576 100.164 33.4813C99.2568 34.0399 98.3141 34.4589 97.3366 34.7731C96.3241 35.0873 95.3116 35.2269 94.2293 35.2269C92.5186 35.2269 90.9126 34.8778 89.4114 34.1796C87.9101 33.4813 86.6184 32.5387 85.5012 31.3516C84.384 30.1646 83.5111 28.8379 82.8827 27.2668C82.2194 25.7307 81.9052 24.0898 81.9052 22.3442C81.9052 20.6683 82.2194 19.0274 82.8827 17.4564C83.546 15.8853 84.4189 14.5237 85.5012 13.3367C86.6184 12.1496 87.9101 11.2419 89.4114 10.5087C90.9126 9.81049 92.5186 9.46136 94.2293 9.46136C95.3116 9.46136 96.3241 9.60101 97.3366 9.91522C98.349 10.2294 99.2917 10.6484 100.164 11.207C101.072 11.7656 101.875 12.394 102.608 13.1272C103.342 13.8604 104.005 14.6284 104.529 15.4663L111.302 12.7432C110.464 11.2768 109.451 9.91522 108.264 8.69328C107.042 7.47133 105.716 6.42395 104.249 5.55113C102.783 4.67832 101.212 3.98006 99.5012 3.5262C97.7904 3.03742 96.0448 2.79303 94.1944 2.79303C91.5061 2.79303 88.9924 3.31672 86.6184 4.32919C84.2443 5.37657 82.1845 6.77308 80.4039 8.55363C78.6234 10.3342 77.2268 12.394 76.1795 14.7681C75.1321 17.1422 74.6433 19.6908 74.6433 22.3442C74.6433 25.0324 75.167 27.5461 76.1795 29.9202C77.2268 32.2943 78.6234 34.3541 80.4039 36.1347C82.1495 38.02 84.2443 39.4165 86.6184 40.4289Z" fill="white"/>
<path d="M134.903 9.63588L151.382 41.3017H159.237L140.593 5.0274C140 7.64586 137.696 9.60097 134.903 9.63588Z" fill="white"/>
<path d="M172.992 25.4165L162.833 3.52618H154.873L172.783 41.2668H173.202L191.182 3.52618H183.152L172.992 25.4165Z" fill="white"/>
<path d="M231.367 14.7681C230.319 12.3591 228.923 10.2993 227.142 8.51872C225.362 6.73817 223.302 5.34166 220.928 4.29428C218.554 3.2469 216.005 2.75812 213.282 2.75812C210.594 2.75812 208.08 3.28181 205.706 4.29428C203.332 5.34166 201.272 6.73817 199.491 8.51872C197.711 10.2993 196.314 12.3591 195.267 14.7681C194.219 17.1771 193.731 19.6908 193.731 22.3791C193.731 25.1023 194.254 27.6509 195.267 30.0249C196.314 32.399 197.711 34.4589 199.491 36.2394C201.272 38.02 203.332 39.4165 205.706 40.4638C208.08 41.5112 210.628 42 213.282 42C216.005 42 218.554 41.4763 220.928 40.4638C223.302 39.4165 225.362 38.02 227.142 36.2394C228.923 34.4589 230.319 32.399 231.367 30.0249C232.414 27.6509 232.903 25.1023 232.903 22.3791C232.903 19.6908 232.379 17.1422 231.367 14.7681ZM224.698 27.2668C224.035 28.803 223.162 30.1995 222.045 31.3865C220.928 32.5736 219.636 33.5162 218.135 34.2145C216.633 34.9127 215.027 35.2619 213.317 35.2619C211.606 35.2619 210 34.9127 208.499 34.2145C206.998 33.5162 205.706 32.5736 204.589 31.3865C203.471 30.1995 202.599 28.8379 201.935 27.2668C201.272 25.7307 200.958 24.0898 200.958 22.3442C200.958 20.6683 201.272 19.0274 201.935 17.4564C202.599 15.8853 203.471 14.5237 204.589 13.3367C205.706 12.1496 206.998 11.2419 208.499 10.5087C210 9.81049 211.606 9.46136 213.317 9.46136C215.027 9.46136 216.633 9.81049 218.135 10.5087C219.636 11.207 220.928 12.1496 222.045 13.3367C223.162 14.5237 224.035 15.8853 224.698 17.4564C225.362 19.0274 225.676 20.6334 225.676 22.3442C225.676 24.0898 225.362 25.7307 224.698 27.2668Z" fill="white"/>
<path d="M134.868 7.57606C136.963 7.57606 138.638 5.93516 138.673 3.94514C138.743 1.81546 137.032 0 134.868 0C132.773 0 131.097 1.71072 131.097 3.8404C131.097 5.93516 132.773 7.57606 134.868 7.57606ZM134.903 2.16459C135.776 2.1995 136.509 2.93267 136.474 3.80549C136.474 4.71322 135.741 5.41147 134.833 5.41147C133.96 5.41147 133.227 4.6783 133.227 3.80549C133.262 2.93267 134.065 2.16459 134.903 2.16459Z" fill="white"/>
</g>
<defs>
<clipPath id="clip0">
<rect width="232.903" height="42" fill="white"/>
</clipPath>
</defs>
</svg>
